<?xml version="1.0" encoding="UTF-8"?>
<svg id="Layer_1" data-name="Layer 1" xmlns="http://www.w3.org/2000/svg" viewBox="0 0 398.28 400">
  <defs>
    <style>
      .cls-1 {
        fill: #fff;
        stroke-width: 0px;
      }
    </style>
  </defs>
  <path class="cls-1" d="m398.28,218.62c-9.39,101.73-94.96,181.38-199.14,181.38S9.39,320.35,0,218.62h107.58c8.8,42.75,46.64,74.89,91.99,74.89s83.2-32.14,92-74.89h106.71Z"/>
  <path class="cls-1" d="m397.99,178.39h-106.89c-9.61-41.67-46.94-72.73-91.53-72.73s-81.91,31.06-91.52,72.73H.29C11.07,78.09,95.98,0,199.14,0s188.07,78.09,198.85,178.39Z"/>
  <path class="cls-1" d="m252.4,200c0,29.42-23.84,53.26-53.26,53.26s-53.25-23.84-53.25-53.26,23.84-53.25,53.25-53.25,53.26,23.84,53.26,53.25Z"/>
</svg>